<mxfile host="app.diagrams.net" modified="2024-03-05T02:44:20.632Z" agent="Mozilla/5.0 (Windows NT 10.0; Win64; x64) AppleWebKit/537.36 (KHTML, like Gecko) Chrome/122.0.0.0 Safari/537.36 Edg/122.0.0.0" version="24.0.1" etag="TXhMU3SQcJ7iRQj_xs_R" type="github">
  <diagram name="第 1 页" id="GjRqVBdj_CGek5S5LRbK">
    <mxGraphModel>
      <root>
        <mxCell id="0" />
        <mxCell id="1" parent="0" />
      </root>
    </mxGraphModel>
  </diagram>
</mxfile>
